HIERARCHY
ROOT Hips
{
  OFFSET 0 0 0
  CHANNELS 6 Xposition Yposition Zposition Zrotation Yrotation Xrotation
  JOINT LeftThigh
  {
    OFFSET 8.409438 0 -5.917753
    CHANNELS 3 Zrotation Yrotation Xrotation
    JOINT LeftLeg
    {
      OFFSET 0 0 -42.358652
      CHANNELS 3 Zrotation Yrotation Xrotation
      JOINT LeftFoot
      {
        OFFSET 0 0 -39.357303
        CHANNELS 3 Zrotation Yrotation Xrotation
      }
    }
  }
  JOINT RightThigh
  {
    OFFSET -8.409438 0 -5.917753
    CHANNELS 3 Zrotation Yrotation Xrotation
    JOINT RightLeg
    {
      OFFSET 0 0 -42.358652
      CHANNELS 3 Zrotation Yrotation Xrotation
      JOINT RightFoot
      {
        OFFSET 0 0 -39.357303
        CHANNELS 3 Zrotation Yrotation Xrotation
      }
    }
  }
  JOINT SpineLow
  {
    OFFSET 0 0 4.719101
    CHANNELS 3 Zrotation Yrotation Xrotation
    JOINT SpineMid
    {
      OFFSET 0 0 12.899191
      CHANNELS 3 Zrotation Yrotation Xrotation
      JOINT Chest
      {
        OFFSET 0 0 12.899191
        CHANNELS 3 Zrotation Yrotation Xrotation
        JOINT LeftShoulder
        {
          OFFSET 7.550562 1.41573 9.438202
          CHANNELS 3 Zrotation Yrotation Xrotation
          JOINT LeftArm
          {
            OFFSET 9.155056 0 4.247191
            CHANNELS 3 Zrotation Yrotation Xrotation
            JOINT LeftForearm
            {
              OFFSET 0 0 25.771955
              CHANNELS 3 Zrotation Yrotation Xrotation
              JOINT LeftHand
              {
                OFFSET 0 0 25.197169
                CHANNELS 3 Zrotation Yrotation Xrotation
              }
            }
          }
        }
        JOINT RightShoulder
        {
          OFFSET -7.550562 1.41573 9.438202
          CHANNELS 3 Zrotation Yrotation Xrotation
          JOINT RightArm
          {
            OFFSET -9.155056 0 4.247191
            CHANNELS 3 Zrotation Yrotation Xrotation
            JOINT RightForearm
            {
              OFFSET 0 0 -25.771955
              CHANNELS 3 Zrotation Yrotation Xrotation
              JOINT RightHand
              {
                OFFSET 0 0 -25.197169
                CHANNELS 3 Zrotation Yrotation Xrotation
              }
            }
          }
        }
        JOINT Neck
        {
          OFFSET 0 0 15.101124
          CHANNELS 3 Zrotation Yrotation Xrotation
          JOINT Head
          {
            OFFSET 0 0 11.325843
            CHANNELS 3 Zrotation Yrotation Xrotation
            End Site
            {
              OFFSET 0 0 14.157303
            }
          }
        }
      }
    }
  }
}
MOTION
Frames: 14
Frame Time: 0.0
0.0  89.887642  0.0  3.124263  29.888706  -85.749191  3.509493  -41.910481  -10.963162  2.580225  50.897574  45.44968  8.487198  1.095962  3.479348  -39.511885  1.401482  -54.10962  1.947459  14.877798  50.827835  2.328619  1.363292  -2.363805  -0.947519  -1.051536  -0.300777  -2.578327  -2.8855  -0.781241  -2.578327  -2.8855  -0.78124  -0.666216  25.016069  13.159042  115.718808  46.408385  -150.015526  -15.807028  -8.971968  74.671672  85.625555  25.026682  8.762253  -8.710896  11.303089  25.355387  34.343399  64.675209  -0.799814  -17.617533  -11.318584  -79.521064  88.615224  21.906207  -4.25153  -19.493856  6.87109  2.340147  -14.629411  5.084957  1.975615  
0.0  89.887642  0.0  2.890456  29.730394  -85.963742  3.589793  -42.072201  -10.950013  2.840395  50.759254  45.795998  8.199344  1.045191  3.389141  -39.688527  0.670437  -53.91501  2.230365  15.439744  50.677814  2.776333  1.374606  -2.370566  -0.995027  -1.059053  -0.325324  -2.707104  -2.907584  -0.845979  -2.707104  -2.907584  -0.845979  -0.493386  24.992436  13.350732  116.222784  46.338764  -149.944775  -15.872839  -8.926763  74.785546  85.433796  25.054769  8.51078  -8.870904  11.234814  25.325961  34.401404  64.857486  -0.863406  -18.158805  -11.23311  -79.203259  88.711222  21.867457  -4.427248  -19.259584  6.894592  2.418626  -14.454793  5.100889  2.032499  
0.0  89.887642  0.0  2.728098  29.765765  -86.053655  3.658389  -42.203525  -11.057893  2.373152  50.859862  45.46774  8.252888  1.07823  3.397499  -39.761192  0.230954  -53.803793  2.433757  15.774848  50.692266  2.920438  1.337722  -2.444846  -0.978333  -1.066924  -0.325149  -2.661373  -2.928883  -0.845927  -2.661373  -2.928883  -0.845927  -0.674751  24.95706  13.408762  116.514259  46.311717  -149.897094  -15.930875  -8.858078  74.959509  85.278098  25.108211  8.369428  -9.087323  11.18144  25.242249  34.462388  64.983745  -0.90298  -18.156054  -11.219034  -79.1963  88.704727  21.885777  -4.427727  -19.348629  6.839588  2.391897  -14.521251  5.060131  2.011754  
0.0  89.887642  0.0  2.526612  29.702261  -86.168099  3.974395  -42.397639  -11.053882  1.83996  51.011896  45.068617  8.168935  0.979815  3.306635  -39.684614  -0.035797  -53.772462  2.34407  16.157241  50.754132  3.199452  1.290216  -2.482115  -1.029726  -1.067533  -0.357157  -2.800502  -2.932528  -0.93114  -2.800502  -2.932528  -0.931139  -0.526595  24.908784  13.570728  117.1385  46.178992  -149.708766  -15.815011  -8.570204  75.283598  85.322016  25.495725  8.066726  -9.329559  11.09487  25.13425  34.171045  65.089673  -1.183942  -18.217859  -11.166319  -79.146449  88.604107  22.055459  -4.913199  -19.157982  6.852671  2.473371  -14.379357  5.068037  2.071069  
0.0  89.887642  0.0  2.43926  29.723193  -86.175282  4.211467  -42.542932  -11.171631  1.204932  51.164657  44.483434  8.19872  0.983558  3.338043  -39.39318  0.078868  -53.827929  2.005532  16.393263  50.931255  3.299806  1.251585  -2.56264  -1.016165  -1.070869  -0.358773  -2.763302  -2.941528  -0.936028  -2.763302  -2.941528  -0.936028  -0.700832  24.907641  13.537865  117.613461  46.068326  -149.547592  -15.874381  -8.463262  75.405227  85.316956  25.628792  8.172725  -9.513837  11.101627  24.969581  34.370936  65.17584  -1.09666  -18.288253  -11.104005  -79.139868  88.634196  22.031659  -4.87847  -19.246508  6.812408  2.435457  -14.445278  5.03869  2.042397  
0.0  89.887642  0.0  2.340927  29.583148  -86.25195  4.677154  -42.695646  -11.175481  0.509265  51.28515  43.835595  8.121012  0.947088  3.340612  -39.321162  0.250423  -54.022368  1.766298  16.491671  51.213731  3.578941  1.214966  -2.592511  -1.071947  -1.056345  -0.386074  -2.91483  -2.903797  -1.008814  -2.91483  -2.903798  -1.008814  -0.484304  24.823041  13.646856  117.615207  45.907481  -149.186799  -16.373227  -8.859223  74.93215  85.349424  25.822689  8.411739  -9.588186  11.019809  24.842322  34.301105  65.27173  -1.13966  -18.15452  -11.017309  -79.306943  88.598091  22.122849  -5.18641  -19.042607  6.826661  2.515694  -14.293435  5.047587  2.100674  
0.0  89.887642  0.0  2.317682  29.494144  -86.223015  5.248955  -42.777401  -11.311256  -0.353935  51.401606  43.039159  8.03039  0.924629  3.37901  -38.782741  0.610382  -54.132858  1.236388  16.731118  51.452537  3.758307  1.148389  -2.661293  -1.044965  -1.050571  -0.390446  -2.840917  -2.887807  -1.022206  -2.840917  -2.887807  -1.022206  -0.692239  24.830905  13.627052  118.146297  45.829524  -149.092438  -16.566344  -8.834374  75.261902  85.369745  26.088701  8.721601  -9.808686  11.023329  24.611387  34.886265  65.357777  -0.678039  -18.291478  -10.91345  -79.349176  88.609013  22.091202  -5.212333  -19.153557  6.780649  2.500783  -14.376417  5.013113  2.089334  
0.0  89.887642  0.0  2.271165  29.204782  -86.255452  5.980617  -42.824907  -11.366782  -1.324112  51.471502  42.133007  7.959453  0.908504  3.43978  -38.529111  0.942867  -54.379658  0.803656  16.881877  51.745949  4.382739  1.088144  -2.634401  -1.028074  -1.042846  -0.40564  -2.794162  -2.867083  -1.064812  -2.794162  -2.867083  -1.064812  -0.877664  24.836322  13.60476  118.960834  45.648182  -148.950368  -16.720676  -8.985535  75.763874  85.328139  26.447157  8.921641  -10.106787  11.019554  24.36546  36.186853  65.524492  0.275381  -18.338494  -10.873791  -79.514659  88.584893  22.006392  -5.241879  -19.161622  6.798617  2.53294  -14.382812  5.025571  2.114103  
0.0  89.887642  0.0  2.32877  28.958499  -86.183258  6.676772  -42.853304  -11.450258  -2.244277  51.558207  41.255511  7.875043  0.895499  3.492649  -37.874612  1.187027  -54.523233  0.496884  17.095986  52.061962  4.506646  1.039668  -2.692241  -0.994641  -1.031958  -0.428102  -2.701907  -2.837721  -1.128126  -2.701907  -2.837721  -1.128126  -1.095373  24.914357  13.594424  119.677022  45.470496  -148.874856  -16.807925  -9.286686  76.577682  85.211989  26.912653  8.951156  -10.338584  11.036437  24.108603  37.329097  65.641853  1.35248  -18.361815  -10.759098  -79.802601  88.475533  21.783705  -5.17686  -19.215492  6.801381  2.597604  -14.423901  5.025428  2.163305  
0.0  89.887642  0.0  2.399682  28.602907  -86.119491  7.235392  -42.846678  -11.401074  -2.915459  51.527321  40.498363  7.806377  0.90681  3.566329  -37.57787  1.374244  -54.845112  0.522548  17.063041  52.541506  4.829677  0.997957  -2.663651  -0.968958  -1.017188  -0.461942  -2.630448  -2.798271  -1.222342  -2.630448  -2.79827  -1.222342  -1.293756  24.999221  13.556071  120.6152  45.267491  -148.768793  -16.781873  -9.635808  77.620072  85.133436  27.290723  8.835836  -10.781856  11.077759  23.772252  39.016332  65.810957  3.04247  -18.101116  -10.591515  -80.621816  88.430229  21.18673  -4.882387  -19.180816  6.837924  2.707934  -14.399163  5.049541  2.24679  
0.0  89.887642  0.0  2.52718  28.291145  -85.937343  7.694775  -42.796838  -11.350153  -3.38907  51.386267  39.827356  7.661541  0.91238  3.636644  -36.955852  1.352421  -55.114258  0.461587  17.486731  52.97662  4.834283  0.981763  -2.728167  -0.958198  -0.994702  -0.50898  -2.599431  -2.738466  -1.352284  -2.599431  -2.738466  -1.352284  -1.495208  25.061521  13.505446  121.750446  45.157034  -148.486423  -16.895559  -9.904753  78.907906  85.499534  27.538214  9.058671  -10.956957  11.038619  23.455355  41.824797  65.950147  5.596628  -18.554841  -10.077206  -81.169191  88.417694  20.181579  -4.608519  -19.097575  6.843766  2.830131  -14.338206  5.050438  2.337654  
0.0  89.887642  0.0  2.625124  27.745226  -85.848581  8.07529  -42.745595  -11.036036  -3.623393  51.10893  39.236998  7.523901  0.925041  3.703474  -36.605461  1.261037  -55.516282  0.791441  17.62106  53.611511  4.77901  0.93854  -2.792924  -0.954126  -0.972384  -0.548648  -2.58709  -2.678936  -1.461769  -2.58709  -2.678936  -1.461769  -1.53447  25.095559  13.520862  123.10419  45.176142  -147.92781  -17.366553  -9.961031  80.598743  86.528317  27.873343  9.772869  -11.012246  10.95055  23.103583  46.378854  66.21513  9.414318  -19.529301  -9.444457  -81.623877  88.481995  18.680137  -4.392889  -18.853116  6.846077  2.965271  -14.156629  5.049001  2.436247  
0.0  89.887642  0.0  2.818695  27.219395  -85.709946  8.381042  -42.612936  -10.59458  -3.683995  50.675266  38.74777  7.268128  0.924647  3.752003  -35.997221  1.038475  -55.834439  1.080037  18.172994  54.129066  4.895735  0.930699  -2.835405  -0.964983  -0.930613  -0.565453  -2.616963  -2.565682  -1.508882  -2.616963  -2.565683  -1.508882  -1.678736  24.997084  13.344951  124.641506  45.374058  -147.029199  -17.817172  -9.973545  82.659614  87.60505  28.275164  10.452152  -10.90894  10.718965  22.570828  52.221927  66.439792  14.371654  -20.889139  -8.740701  -82.11254  88.534225  16.677721  -4.32845  -18.570597  6.74899  3.028363  -13.9457  4.975392  2.477376  
0.0  89.887642  0.0  3.016829  26.499718  -85.622682  8.740147  -42.44932  -9.947503  -3.702519  50.087291  38.211615  6.97235  0.943052  3.812543  -35.553151  0.71846  -56.223219  1.672012  18.578085  54.748154  5.260453  0.884627  -2.832616  -0.949846  -0.87052  -0.574705  -2.57649  -2.401482  -1.537045  -2.57649  -2.401482  -1.537045  -1.905819  24.700358  13.086378  126.301095  45.696454  -145.731747  -18.033784  -10.411867  84.899275  88.031004  28.582878  10.724267  -10.794017  10.42083  22.056192  58.772612  66.438232  19.931712  -22.284593  -7.969804  -82.814107  88.553136  14.400023  -4.34921  -18.271107  6.581961  3.127936  -13.722385  4.848322  2.543703  
